<svg width="300" height="127" viewBox="0 0 300 127" fill="none" xmlns="http://www.w3.org/2000/svg">
<path d="M122.56 29.7687C122.56 29.7687 123.723 28.029 124.693 26.6759C126.438 24.3563 129.541 21.0701 132.062 18.9438C132.838 18.3639 133.613 17.5907 133.613 17.5907C133.613 17.5907 132.256 17.784 131.48 17.9773C129.735 18.3639 127.02 20.1036 125.663 21.2634C123.529 23.1964 121.008 26.096 122.172 28.9955C122.366 29.1888 122.56 29.7687 122.56 29.7687ZM134.777 33.0549C138.268 32.8616 141.564 31.8951 144.473 30.1553C147.382 28.4156 151.842 25.3228 151.454 21.4567C151.26 20.2969 150.485 19.3304 149.515 18.9438C148.158 18.3639 147.576 18.5572 145.831 18.9438C144.667 19.3304 144.085 19.5237 142.922 20.1036C139.431 22.0366 134.583 26.2893 132.062 29.5754C131.48 30.3486 130.899 31.3152 130.317 31.8951C129.929 32.2817 129.735 32.6683 129.735 32.6683C129.929 33.0549 133.42 33.0549 134.777 33.0549ZM125.856 39.4339C125.469 39.8205 125.081 40.787 124.693 41.3669C124.499 41.7535 124.111 42.1401 123.917 42.3334C122.948 42.9133 122.172 43.1066 121.396 42.3334C120.233 41.1736 119.457 39.6272 119.457 37.8875V35.7611C119.263 34.7946 118.293 33.6348 117.712 32.6683C117.13 31.5085 116.548 29.5754 116.548 28.2223C116.354 24.163 118.487 20.4902 121.202 17.5907C123.917 14.6911 127.602 12.1782 131.48 10.6318C135.165 9.08533 140.595 7.92551 144.667 9.47193C146.025 9.85854 147.77 11.0184 148.739 12.1782C148.933 12.3715 149.127 12.7581 149.321 12.7581C149.515 12.9514 149.903 12.9514 150.291 12.9514C151.648 13.1447 153.394 14.1112 154.169 14.8844C155.721 16.2375 156.496 17.3974 156.884 19.3304C157.66 23.0031 155.527 27.0625 153.2 29.5754C149.127 33.8281 144.861 36.7276 139.625 38.854C137.298 39.8205 133.613 40.5937 131.092 40.4004C130.317 40.4004 129.347 40.2071 128.571 40.0138C128.184 40.0138 126.632 39.6272 126.438 39.4339C126.244 39.6272 126.05 39.4339 125.856 39.4339ZM130.705 47.5526C130.899 47.5526 131.092 47.7459 131.286 47.7459C133.226 48.5191 134.001 50.2588 134.389 51.9986C135.553 56.4445 135.941 66.1097 136.134 69.7824C136.328 72.682 136.328 75.3882 136.522 78.2878C136.716 80.6074 136.716 83.8935 136.328 86.0199C136.134 86.7931 135.553 87.7596 134.777 88.3395C133.807 88.9194 131.868 88.9194 130.705 88.7261C127.99 88.1462 127.02 86.4065 126.632 83.7002C125.663 77.3212 126.244 64.7566 126.632 59.3441C126.826 57.6044 127.408 51.9986 128.378 49.6789C128.765 49.099 129.541 47.3593 130.705 47.5526ZM46.7356 57.2177C46.7356 57.2177 42.6632 57.411 39.9483 57.7977C36.4577 58.1843 29.8643 59.3441 25.9858 60.6972C24.8222 61.0838 22.4952 62.0503 22.3012 63.2101C22.1073 64.37 22.883 65.3365 23.6587 66.303C24.2405 66.8829 26.9554 69.5891 27.7311 70.169C31.0278 72.8753 37.6212 77.1279 42.4693 79.061C44.2146 79.8342 46.9295 80.8007 46.9295 80.8007C46.9295 80.8007 46.7356 72.8753 46.7356 65.1432C46.5417 61.2771 46.7356 57.2177 46.7356 57.2177ZM120.621 60.3106C120.814 62.4369 120.233 66.4963 120.233 66.8829C120.039 68.0427 119.069 70.9423 119.069 71.1356C118.293 72.8753 117.518 74.2284 116.742 75.5815C115.385 77.9012 112.282 81.7672 110.343 83.3136C103.361 89.306 92.6955 92.7855 83.3872 93.752C77.1816 94.5252 70.0065 94.3319 63.2191 93.1721C60.892 92.7855 57.5953 92.0123 57.5953 92.0123C57.5953 92.0123 57.5953 93.3654 57.4014 94.3319C57.4014 94.7185 57.0136 95.8783 56.8197 96.2649C56.4318 97.2314 55.4622 97.8114 54.4926 98.0047C53.1351 98.198 51.5837 98.3913 50.4202 97.8114C48.287 96.8448 47.5113 94.9118 47.1235 92.7855C46.7356 91.0458 46.5417 87.7596 46.5417 87.7596C46.5417 87.7596 44.9903 86.9864 43.6328 86.4065C39.5604 84.4735 35.682 81.9605 32.3853 79.4476C31.4156 78.6744 27.5372 75.3882 26.5675 74.615C24.0465 72.2954 21.9134 69.9757 20.1681 66.8829C18.8106 64.5633 18.4228 62.4369 19.3924 59.924C20.7498 56.4445 25.7919 53.9316 29.0886 52.3852C31.6096 51.2254 39.3665 48.7124 42.4693 48.3258C44.0207 48.1325 46.3478 47.7459 46.5417 47.5526C46.5417 47.5526 46.7356 47.5526 46.7356 47.3593C46.7356 47.166 46.9295 43.8798 46.9295 42.5267C46.9295 41.3669 47.8992 33.2482 48.0931 31.5085C48.287 30.5419 48.8688 27.0625 49.6445 26.096C50.0323 25.5161 51.0019 25.5161 51.5837 25.9027C55.2683 28.2223 56.4318 36.1477 56.6257 40.2071C56.8197 42.72 56.8197 46.3928 56.8197 46.3928C56.8197 46.3928 61.086 46.1995 63.607 46.3928C66.128 46.3928 68.8429 46.7794 71.5579 47.3593C74.8546 47.9392 81.448 49.2923 85.1325 51.2254C88.2353 52.7718 91.1442 55.478 92.1138 58.1843C92.8895 60.6972 92.8895 62.4369 91.532 64.7566C89.9806 67.2695 87.2657 69.2025 84.3568 69.3958C83.5811 69.3958 80.2844 69.0092 79.3148 68.236C78.927 67.8494 78.927 67.4628 79.3148 67.0762C79.5087 66.8829 80.8662 66.1097 81.8358 65.7231C82.2237 65.5298 82.6115 65.1432 82.9994 64.9499C83.775 64.3699 84.3568 63.5967 84.3568 62.8235C84.1629 61.6637 83.1933 61.0838 82.0297 60.6972C76.9877 58.7642 66.7098 57.0244 61.6677 56.6378C59.7285 56.4445 57.0136 56.4445 57.0136 56.4445L57.5953 83.7002C57.5953 83.7002 59.9224 84.0869 61.6677 84.4735C62.6374 84.6668 67.0976 85.0534 68.2612 85.0534C77.1816 85.2467 86.8778 84.4735 95.0226 80.6074C98.5133 78.8677 101.81 76.9346 104.331 74.0351C107.628 70.3623 109.373 65.1432 108.791 59.924C108.209 54.1249 104.137 47.166 100.84 42.9133C92.1138 31.8951 77.3756 22.6165 64.1888 17.3974C50.808 11.9849 37.6212 8.69872 23.4648 8.31212C19.7802 8.11881 11.8293 8.31212 7.75695 9.47193C7.17518 9.66524 6.5934 9.85854 6.01163 9.85854C5.62379 9.85854 4.84809 10.2451 4.65417 10.4384C4.46024 10.4384 4.46024 10.6318 4.46024 10.6318C4.46024 10.6318 4.65417 10.8251 4.84809 10.8251C5.23594 11.0184 6.98125 11.2117 7.95087 11.2117C8.72657 11.405 9.69619 11.7916 9.89011 12.3715C10.278 12.9514 10.278 13.338 9.89011 13.9179C8.92049 15.0777 5.62379 14.8844 4.0724 14.6911C2.52101 14.4978 0.581769 13.9179 0.193921 12.5648C-0.193926 11.0184 0.581769 9.47193 1.35746 7.92551C3.10278 5.02597 5.42986 3.47954 8.92049 2.51303C13.7686 1.15991 20.1681 0.193395 24.8222 9.21451e-05C35.2941 -0.386514 45.3782 1.35321 55.6561 4.44606C61.4738 6.18578 69.2308 9.08533 74.8546 11.7916C78.927 13.7246 85.3264 17.2041 88.8171 19.717C89.9806 20.4902 96.574 25.3228 97.5436 26.096C99.6768 27.8357 102.392 30.3486 104.525 32.2817C108.403 36.1477 113.251 42.1401 115.579 46.7794C116.16 47.9392 116.548 49.099 117.324 50.2588C117.518 50.6455 118.681 53.3517 118.875 54.1249C119.069 54.8981 119.263 56.0579 119.263 56.0579C120.233 57.2177 120.621 59.5374 120.621 60.3106ZM166.193 62.4369H166.58C169.877 62.8235 172.98 63.4034 175.501 64.5633C177.828 65.5298 178.992 66.8829 180.349 69.0092C182.094 72.4887 182.288 77.1279 180.737 80.8007C179.573 83.5069 176.858 85.6333 174.337 86.9864C171.816 88.1462 169.295 88.7261 166.387 89.1127C161.345 89.6926 155.721 88.7261 151.26 86.4065C148.546 85.0534 145.249 82.7337 143.504 79.8342C142.34 77.7079 142.34 74.8083 143.891 72.8753C146.218 69.5891 151.454 69.0092 155.139 69.0092C158.048 69.2025 163.284 69.9757 166.193 70.9423C166.968 71.1356 169.877 72.2954 170.265 72.8753C170.653 73.2619 170.847 73.6485 170.653 74.2284C170.071 76.1614 165.223 77.1279 163.866 77.3213C160.181 77.9012 158.242 76.548 154.169 74.8083C153.2 74.4217 151.842 74.0351 150.679 73.8418C148.739 73.6485 146.606 74.2284 146.218 76.1614C146.025 77.1279 147.188 78.2878 148.158 78.6744C150.291 79.6409 152.23 80.0275 154.363 80.0275C160.763 80.2208 168.132 79.061 173.368 75.3882C174.144 74.8083 174.725 74.0351 174.725 73.2619C174.725 73.0686 174.531 72.1021 174.144 71.9088H173.95C173.756 71.9088 173.562 71.5222 173.368 71.3289C172.98 70.9423 171.429 70.169 171.235 70.169C167.744 68.6226 161.151 68.0427 157.66 67.6561C154.169 67.2695 148.546 66.8829 147.188 66.6896C145.831 66.4963 144.279 66.303 143.116 65.7231C141.952 65.1432 140.789 63.9834 140.401 62.6302C139.819 60.1173 140.595 57.2177 141.952 55.2847C145.443 50.2588 153.782 48.3258 159.987 47.5526C165.999 46.7794 175.695 46.7794 181.513 49.8722C182.482 50.2588 182.87 50.8387 182.676 51.8053C182.288 53.545 180.931 54.7048 179.186 55.2847C177.44 55.8646 173.756 56.0579 172.204 56.0579C165.029 56.4445 156.496 56.2512 149.709 57.991C149.127 58.1843 148.352 58.3776 147.964 58.7642C146.994 59.924 149.903 60.3106 150.485 60.3106H150.873L166.193 62.4369ZM188.3 88.7261C185.391 87.7596 184.809 83.1203 184.615 80.8007C184.228 73.2619 186.167 62.6302 188.688 55.478C189.463 53.3517 190.433 50.0655 192.76 50.2588C194.312 50.4521 195.475 51.612 196.251 52.7718C198.578 55.8646 201.487 60.1173 203.426 63.2101C205.559 66.4963 207.692 69.9757 209.825 72.8753C210.019 73.2619 210.407 73.6485 210.601 73.8418C210.989 74.2284 211.377 74.2284 211.377 73.8418C211.377 73.6485 211.377 69.9757 211.183 69.2025C210.989 68.0427 210.989 67.0762 210.795 65.9164C210.407 62.8235 209.438 58.5709 208.662 55.6713C207.886 52.3852 206.723 49.099 205.947 45.8129C205.753 44.8464 205.559 43.6865 205.559 42.72C205.559 41.3669 206.529 40.5937 207.886 40.9803C210.795 41.9468 214.674 48.3258 215.837 50.4521C216.225 51.2254 217.776 54.8981 218.164 56.0579C219.328 59.7307 220.103 63.0168 220.491 67.0762C220.879 70.9423 220.491 76.548 218.94 80.2208C218.358 81.5739 217.195 83.5069 216.031 84.4735C214.48 86.0199 211.183 87.1797 209.05 85.8266C206.723 84.4735 202.65 77.7078 202.069 76.548C199.741 72.4887 195.863 64.7566 195.281 63.9833C195.087 63.79 194.893 63.5967 194.699 63.5967C194.505 63.5967 194.312 63.9833 194.312 64.3699C193.924 66.6896 193.73 77.1279 193.73 77.5145C193.73 79.2543 193.536 83.7002 193.148 85.8266C192.76 87.1797 192.566 88.3395 191.209 88.9194C190.045 89.306 189.463 89.1127 188.3 88.7261ZM227.666 88.1462C227.279 87.9529 226.891 87.373 226.503 86.9864C226.503 86.9864 225.339 85.44 225.145 84.8601C224.952 84.4735 224.758 84.0869 224.758 83.8935C223.788 81.3806 223.788 79.061 224.37 76.548C224.952 74.0351 225.339 74.0351 226.503 70.7489C226.503 70.5556 226.697 70.3623 226.697 70.169C226.697 69.7824 225.921 66.6896 225.921 65.7231C225.921 64.1767 227.085 63.2101 229.024 63.0168H229.412C230.187 62.8235 230.769 61.2771 231.157 60.1173C231.739 58.3776 232.708 55.8646 232.708 55.8646C232.708 55.8646 230.187 55.2847 228.83 54.8981C227.279 54.3182 226.309 53.545 225.533 52.1919C224.758 50.6455 225.339 49.6789 226.891 49.2923C227.473 49.099 232.321 48.1325 233.872 47.9392C235.811 47.7459 237.557 47.3593 239.302 47.166C240.853 46.9727 248.028 46.1995 250.356 46.1995C253.846 46.3928 256.173 47.7459 258.113 50.6455C259.276 52.1919 259.858 54.1249 258.306 55.0914C255.785 56.6378 247.641 56.8311 246.089 56.8311H240.465L238.72 62.4369H247.835C248.61 62.4369 249.386 62.4369 249.968 62.6302C251.713 63.0168 252.295 64.37 252.295 66.1097C252.295 68.236 251.907 69.3958 250.162 69.5891C249.192 69.7824 239.108 69.7824 237.75 69.9757C236.975 70.169 236.005 70.169 236.005 70.169C236.005 70.169 235.229 72.1021 234.648 74.0351C234.066 75.9681 233.484 78.0945 233.484 78.0945H234.454C235.229 78.0945 235.811 78.0945 236.393 77.9012C239.496 77.3212 244.15 76.7413 247.835 76.1614C249.774 75.7748 250.937 75.7748 251.907 77.1279C252.877 78.2878 253.264 79.2543 253.458 80.8007C253.458 82.1538 252.489 83.1203 251.131 84.0869C247.253 87.1797 240.271 90.4658 235.229 91.0458C232.902 91.2391 232.321 91.0458 230.187 90.4658C229.8 90.2725 228.442 89.6926 228.442 89.6926C228.83 88.9194 228.054 88.3395 227.666 88.1462ZM291.661 60.1173C289.14 62.2436 285.65 66.6896 284.098 69.0092C281.965 72.1021 280.026 75.5815 278.087 78.2878C277.699 78.8677 276.341 80.994 276.535 81.1873C276.535 81.3806 277.893 81.3806 279.25 80.994C281.965 80.6074 285.65 78.6744 287.783 76.9346C290.886 74.4217 293.019 71.1356 293.988 67.2695C294.376 65.5298 294.57 61.857 293.407 60.1173C292.825 59.924 292.049 59.7307 291.661 60.1173ZM270.911 92.0123C270.911 92.0123 270.136 94.5252 269.554 96.2649C268.584 99.5511 266.257 108.25 265.676 111.149C264.9 115.209 262.573 125.84 262.573 126.034C262.379 126.42 262.379 126.42 261.991 126.613C261.021 127.193 260.634 127 259.47 126.42C257.919 125.647 256.755 124.874 255.591 123.327C253.458 120.428 253.846 115.015 254.428 111.922C255.979 100.711 257.531 95.8783 261.797 84.8601V84.4735C260.44 81.5739 259.664 78.2878 259.664 75.5815C259.664 66.8829 264.706 58.3776 270.33 51.4187C270.718 50.8388 273.432 47.5526 274.79 47.7459C275.953 47.7459 276.341 49.2923 276.147 50.4521C275.566 54.5115 272.657 58.5709 270.718 61.857C268.584 65.7231 268.003 67.2695 267.033 70.7489C266.839 71.3289 266.451 73.8418 266.451 74.2284C266.451 75.1949 266.645 76.3547 266.645 76.3547C266.645 76.3547 270.136 71.3289 272.463 68.4293C273.82 66.6896 274.596 65.7231 275.76 64.3699C276.923 63.2101 280.995 58.7642 282.159 57.7977C284.68 55.478 285.844 54.5115 288.559 52.9651C290.692 51.8053 292.631 51.612 294.764 52.9651C298.061 55.0914 299.612 59.7307 300 63.4034C300.388 67.8494 299.612 72.8753 297.479 76.7413C295.152 81.3806 291.855 84.6668 287.589 87.373C283.129 90.2725 277.893 92.3989 272.851 92.2056C271.687 92.0123 270.911 92.0123 270.911 92.0123Z" fill="black"/>
</svg>
