<svg width="200" height="70" viewBox="0 0 200 70" fill="none" xmlns="http://www.w3.org/2000/svg">
<path d="M181.806 12.8458C179.581 5.56416 173.037 0.274658 165.38 0.274658C157.723 0.274658 151.178 5.56416 148.953 12.8458L143.259 30.8438V1.23639H112.827C107.33 1.23639 102.356 3.50331 98.6911 7.21283V1.23639H67.3429C61.5183 1.23639 56.2827 3.84679 52.5524 7.96848V1.23639H23.0366C10.3403 1.30508 0 12.0902 0 25.4856C0 31.8743 2.35602 37.6446 6.15183 41.9724H0V70.0686H29.5157C37.8927 70.0686 45.1571 65.3973 49.2147 58.3905C52.5524 65.3286 59.4241 70.0686 67.3429 70.0686H98.6911V64.0921C102.356 67.8017 107.33 70.0686 112.827 70.0686H200L181.806 12.8458Z" fill="white"/>
<path d="M29.5156 46.7813H4.58105V55.0247H29.5156C34.3585 55.0247 38.2852 50.903 38.2852 45.8196C38.2852 40.7362 34.3585 36.6145 29.5156 36.6145H23.0366C17.1465 36.6145 12.4345 31.5998 12.4345 25.4859C12.4345 19.3034 17.2119 14.3574 23.0366 14.3574H47.9711V6.11401H23.0366C12.8926 6.11401 4.58105 14.7696 4.58105 25.4859C4.58105 36.2023 12.8271 44.8579 23.0366 44.8579H29.5156C30.0392 44.8579 30.4318 45.27 30.4318 45.8196C30.4318 46.3005 30.0392 46.7813 29.5156 46.7813Z" fill="#0082CA"/>
<path d="M23.0366 24.5241H47.9711V16.2808H23.0366C18.1936 16.2808 14.2669 20.4024 14.2669 25.4859C14.2669 30.5693 18.1936 34.691 23.0366 34.691H29.5156C35.4057 34.691 40.1177 39.7057 40.1177 45.8195C40.1177 52.0021 35.3402 56.9481 29.5156 56.9481H4.58105V65.1915H29.5156C39.725 65.1915 47.9711 56.5359 47.9711 45.8195C47.9711 35.1031 39.725 26.4476 29.5156 26.4476H23.0366C22.513 26.4476 22.1203 26.0354 22.1203 25.4859C22.1203 24.9363 22.5784 24.5241 23.0366 24.5241Z" fill="#0082CA"/>
<path d="M112.827 16.2808C109.489 16.2808 106.806 19.0972 106.806 22.532V48.7047C106.806 52.2081 109.489 55.0246 112.827 55.0246H128.992V36.6144H116.557V44.8578H121.139V46.7813H116.557C115.51 46.7813 114.725 45.8882 114.725 44.8578V26.4476C114.725 25.3485 115.576 24.5241 116.557 24.5241H138.678V16.2808H112.827Z" fill="#0082CA"/>
<path d="M161.911 55.0246H180.105L167.736 16.4181C167.408 15.3877 166.492 14.6321 165.38 14.6321C164.267 14.6321 163.351 15.3877 163.024 16.4181L146.99 65.2601H156.217L161.846 47.8804V55.0246H161.911ZM165.249 37.4388L167.932 45.7508H162.565L165.249 37.4388Z" fill="#0082CA"/>
<path d="M177.487 14.7008C175.982 9.13649 171.139 5.0835 165.314 5.0835C159.62 5.0835 154.777 9.06779 153.207 14.4947L138.613 59.3524V26.3789H116.492V34.6223H130.825V56.8794H112.827C108.508 56.8794 104.974 53.1699 104.974 48.636V22.532C104.974 17.9981 108.508 14.2886 112.827 14.2886H138.678V6.04522H112.827C104.188 6.04522 97.1204 13.3956 97.1204 22.532V48.7047C97.1204 57.7724 104.123 65.1914 112.827 65.1914H145.092L161.322 15.7999C161.911 14.0138 163.547 12.7086 165.445 12.7086C167.408 12.7086 169.044 14.0138 169.568 15.8686L182.722 57.0168H161.976V65.2601H193.652L177.487 14.7008Z" fill="#0082CA"/>
<path d="M67.3428 56.948C63.0234 56.948 59.4894 53.2385 59.4894 48.7046V22.5319C59.4894 17.9981 63.0234 14.2885 67.3428 14.2885H94.1098V6.04517H67.3428C58.704 6.04517 51.636 13.3955 51.636 22.5319V48.7046C51.636 57.7723 58.6386 65.1914 67.3428 65.1914H94.1098V56.948H67.3428Z" fill="#0082CA"/>
<path d="M69.1752 44.8576H88.5469V36.6143H61.3218V48.7045C61.3218 52.208 64.005 55.0245 67.3427 55.0245H94.1097V46.7811H71.0731C70.026 46.7811 69.1752 45.8881 69.1752 44.8576Z" fill="#0082CA"/>
<path d="M88.5469 26.4476H69.1752C69.1752 25.3485 70.026 24.5241 71.0077 24.5241H94.0443V16.2808H67.2773C63.9396 16.2808 61.2563 19.0972 61.2563 22.532V34.6223H88.4815L88.5469 26.4476Z" fill="#0082CA"/>
<path d="M188.94 12.9146C190.576 12.9146 192.146 12.2277 193.259 10.9912C194.437 9.75466 195.092 8.17468 195.092 6.45731C195.092 4.73994 194.437 3.09127 193.259 1.92345C192.146 0.686948 190.576 0 188.94 0C185.537 0 182.788 2.88518 182.788 6.45731C182.788 8.17468 183.442 9.82336 184.62 10.9912C185.798 12.2277 187.304 12.9146 188.94 12.9146ZM183.704 6.45731C183.704 4.94603 184.228 3.57213 185.275 2.54171C186.256 1.51129 187.631 0.893032 189.005 0.893032C190.445 0.893032 191.754 1.44259 192.735 2.54171C193.717 3.57213 194.306 5.01472 194.306 6.45731C194.306 9.54858 191.95 12.0216 189.005 12.0216C187.565 12.0216 186.256 11.472 185.275 10.3729C184.228 9.34249 183.704 7.9686 183.704 6.45731Z" fill="white"/>
<path d="M187.369 7.00694V10.0295H186.518V2.88525H189.071C189.987 2.88525 190.576 2.88525 191.099 3.29742C191.623 3.70959 191.819 4.25915 191.819 4.9461C191.819 6.59477 190.51 6.86955 190.183 6.93825L192.081 10.0295H190.969L189.136 7.00694H187.369ZM187.369 6.1826H189.202C189.463 6.1826 189.791 6.1826 190.052 6.11391C190.707 5.97652 190.903 5.49566 190.903 4.9461C190.903 4.74001 190.903 4.25915 190.51 3.91568C190.183 3.5722 189.725 3.6409 189.202 3.6409H187.435L187.369 6.1826Z" fill="white"/>
</svg>
