<svg width="300" height="120" viewBox="0 0 300 120" fill="none" xmlns="http://www.w3.org/2000/svg">
<path d="M300 0H0V120H300V0Z" fill="#EC1D24"/>
<path d="M291.231 92.5384V110.769H257.538V9.23071H275.769V92.5384H291.231ZM147 59.0769C145.385 59.7692 144 59.9999 142.615 59.9999V27.4615C144 27.4615 154.846 27.923 154.846 43.6153C154.846 51.6922 151.154 56.9999 147 59.0769ZM93.4615 78.923L98.5385 35.5384L103.846 78.923H93.4615ZM254.308 27.6923V9.23071H202.846L194.308 71.0769L186 9.23071H167.308L169.385 25.6153C167.308 21.4615 159.692 9.23071 142.846 9.23071H124.154V99.2307L110.769 9.23071H86.3077L72.2308 102.461V9.23071H49.1539L40.8462 61.6153L32.5385 9.23071H9.23077V110.769H27.4615V61.8461L36 110.769H45.6923L54 61.8461V110.769H89.3077L91.3846 95.0769H105.692L107.769 110.769H142.385V77.7692L146.538 77.0769L155.538 110.769H173.538L162 71.5384C167.769 67.1538 174.462 56.3076 172.615 45.6922C172.615 45.923 183.462 111 183.462 111H204.923L219.462 19.1538V110.769H254.077V92.5384H237.692V69.2307H254.077V50.7692H237.692V27.6923H254.308Z" fill="#FEFEFE"/>
<path d="M0 0H69.2308V120H0V0Z" fill="#EC1D24"/>
<path d="M72.6923 110.769V9.23071H49.1539L40.8462 61.6153L32.5385 9.23071H9.23077V110.769H27.6923V61.8461L36 110.769H45.6923L54 61.8461V110.769H72.6923Z" fill="#FEFEFE"/>
</svg>
