<svg width="260" height="107" viewBox="0 0 260 107" fill="none" xmlns="http://www.w3.org/2000/svg">
<path d="M10.3824 3.83208C7.33908 3.83208 4.77881 5.75163 4.77881 9.01043V14.2781H9.80266C13.9092 14.2781 16.1794 11.5551 15.9379 8.65336C15.7445 5.97484 13.3287 3.83208 10.3824 3.83208ZM18.8846 24.3226C18.7397 20.6615 15.9383 17.8043 12.0732 17.8043H4.77881V31.4653H10.2376C15.8412 31.4653 19.0294 28.4743 18.8846 24.3226ZM0.769287 8.65336C0.769287 3.92144 5.1652 0.260714 10.2376 0.215868C15.1166 0.215868 19.3195 3.34082 19.8026 7.84953C20.0923 10.7958 18.9812 13.5637 16.421 15.1706C20.0923 16.7331 22.7011 19.9916 22.7492 24.1881C22.8459 31.6879 16.5177 34.9022 9.22325 34.9022H0.769287V8.65336ZM93.0427 12.4031C93.0912 17.2692 97.5353 21.3315 102.753 21.0635C107.632 20.7957 111.399 17.1799 111.496 12.6712C111.593 7.80503 107.245 3.87659 102.125 3.96594C97.1007 4.01045 93.0427 7.80503 93.0427 12.4031ZM102.656 24.5013C98.8401 24.5903 95.893 23.3849 93.2361 21.1528V34.9022H89.2265V12.537C89.2265 5.79647 94.6368 0.617783 102.221 0.483925C109.419 0.394573 115.458 5.88582 115.409 12.5818C115.361 19.0549 109.709 24.3226 102.656 24.501L102.656 24.5013ZM119.746 10.4836C119.746 4.45687 124.818 0.260714 131.05 0.260714C137.281 0.260714 142.209 5.21585 142.015 10.8855C141.822 16.287 137.088 20.9745 130.47 20.6619L142.885 34.9025H137.812L123.755 18.4743V34.9025H119.745L119.746 10.4836ZM123.368 10.171C123.127 13.9659 126.46 17.4031 130.615 17.4476C134.818 17.4924 138.392 14.4568 138.199 10.3052C138.054 6.59996 134.818 3.51952 130.711 3.60887C126.847 3.65338 123.61 6.51027 123.368 10.171ZM150.921 18.653V31.1973H164.157V34.9025H146.912V1.0197H162.853V4.72493H150.921V14.9478H162.225V18.653H150.921ZM188.311 6.19805C187.055 2.71603 183.722 0.260714 179.615 0.171362C174.35 0.0375037 169.906 4.18915 169.857 9.14429C169.857 13.6979 173.046 17.135 178.456 18.0727C182.707 18.7869 187.151 20.4387 186.813 26.0634C186.572 29.5458 183.093 32.1795 179.567 32.1346C175.799 32.0453 172.9 29.3668 172.466 25.8847L168.891 27.0901C169.761 32.0008 174.253 35.4383 179.374 35.5273C184.639 35.6615 190.678 32.0901 190.629 25.5725C190.581 17.8943 184.881 15.7064 180.678 14.8584C177.103 14.1443 173.094 12.7602 173.722 8.43015C174.108 5.75163 176.427 3.60887 179.374 3.60887C182.031 3.60887 184.156 5.1265 184.929 7.35861L188.311 6.19805ZM216.468 1.0197H195.212V4.68008H203.811V34.9025H207.821V4.68008H216.468L216.468 1.0197ZM255.319 17.046C254.691 9.81392 248.508 4.23366 240.73 3.96594C232.47 3.65338 225.658 9.05528 225.127 17.3137C224.644 25.1261 231.794 31.8221 240.151 32.0453C248.749 32.2685 255.996 25.349 255.319 17.0457V17.046ZM221.069 17.3586C221.407 7.80503 230.103 0.171362 240.489 0.350066C250.489 0.483925 258.459 7.58182 259.184 16.778C259.957 27.0456 251.068 35.6615 240.151 35.5273C229.523 35.3934 220.731 27.1798 221.069 17.3586Z" fill="#FF0000"/>
<path fill-rule="evenodd" clip-rule="evenodd" d="M22.5017 43.563V68.2752L103.158 103.749C113.777 93.235 121.851 81.0297 131.625 81.0297C142.472 81.0297 152.714 96.6827 159.661 104.148L241.18 69.0725V44.36L22.5017 43.563Z" fill="#1A1A1A" stroke="#1A1A1A" stroke-width="4.31325"/>
<path fill-rule="evenodd" clip-rule="evenodd" d="M63.4771 56.7161C63.4771 82.6961 107.256 83.6372 107.256 56.7161H63.4771ZM153.838 57.26C153.838 83.2401 197.401 84.1812 197.401 57.26H153.838Z" fill="white" stroke="white" stroke-width="4.31325"/>
<path d="M26.8679 12.4955C26.8679 5.79919 32.8094 0.174415 40.1042 0.21926C47.3982 0.21926 53.1471 5.97789 53.1471 12.7187V34.6379H49.1376V12.4955C49.1376 7.76357 45.128 3.65643 39.959 3.65643C34.7421 3.65643 30.8774 7.94228 30.8774 12.7187V34.6379H26.8679V12.4955ZM58.2816 12.4955C58.2816 5.79919 64.2235 0.174415 71.5179 0.21926C78.8119 0.21926 84.5608 5.97789 84.5608 12.7187V34.6379H80.5516V12.4955C80.5516 7.76357 76.5421 3.65643 71.3734 3.65643C66.1562 3.65643 62.2915 7.94228 62.2915 12.7187V34.6379H58.282L58.2816 12.4955Z" fill="#FF0000"/>
<path d="M30.177 18.2087H51.3625V21.1577H30.177V18.2087Z" fill="#FF0000" stroke="#FF0000" stroke-width="3.80905"/>
</svg>
