<svg width="135" height="135" viewBox="0 0 135 135" fill="none" xmlns="http://www.w3.org/2000/svg">
<g clip-path="url(#clip0_19_23)">
<path d="M125.146 0.398193H9.85401C4.41179 0.398193 0 4.91587 0 10.4887V124.511C0 130.084 4.41179 134.602 9.85401 134.602H125.146C130.588 134.602 135 130.084 135 124.511V10.4887C135 4.91587 130.588 0.398193 125.146 0.398193Z" fill="#ED1C24"/>
<path d="M30.5474 55.5932C33.208 55.5932 36.6569 54.5842 36.6569 51.1534C36.6569 47.1172 33.0109 46.6127 30.7445 46.6127H26.3102V38.3384H30.2518C33.7992 38.3384 35.573 37.2285 35.573 34.1004C35.573 30.8715 33.4051 29.8624 30.2518 29.8624H22.8613V55.5932H30.5474ZM46.708 48.5299C47.2007 50.3461 47.1022 52.4652 47.1022 52.4652C47.1022 52.4652 47.2992 54.9878 45.8211 58.0149C43.9489 61.6475 41.1897 63.0602 41.1897 63.0602C41.1897 63.0602 39.5146 64.0692 37.1496 64.4729C34.5876 64.9774 31.2372 64.9774 31.2372 64.9774H12.8102V21.1846H35.0803C35.0803 21.1846 38.3321 21.1846 40.697 22.3954C43.062 23.5054 44.5401 25.7253 44.5401 25.7253C44.5401 25.7253 46.3138 28.147 46.5109 32.2841C46.708 35.614 44.9343 38.3384 44.9343 38.3384C44.9343 38.3384 44.343 39.7511 43.3576 40.7602C42.5463 41.3672 41.6491 41.8436 40.697 42.1728C40.697 42.1728 43.1605 42.5765 44.8357 44.7964C45.9197 46.3099 46.3138 46.8145 46.8065 48.6308M67.2043 36.5221L75.6788 65.0783H86.5182L71.7372 21.2855H61.2919L46.3138 64.9774H70.5547V55.4923H60.1095L66.0219 36.5221L66.5146 34.605L67.2043 36.5221ZM122.387 21.2855V65.1792H111.942L98.8357 42.2737L98.0474 40.5584V64.9774H87.7007V21.1846H98.1459L111.35 44.8973L112.04 46.3099V21.1846L122.387 21.2855ZM39.0219 92.9281C39.0219 83.8466 34.7846 80.0122 26.7043 80.0122H22.9598V105.239H29.562C33.208 105.239 38.9233 103.826 38.9233 92.9281M49.27 93.2308C49.27 108.669 38.4306 114.421 30.5474 114.421H12.8102V70.8299H30.5474C37.2481 70.729 49.27 74.0588 49.27 93.2308ZM67.2043 86.0666L75.6788 114.522H86.5182L71.7372 70.8299H61.2919L46.3138 114.522H70.5547V105.037H60.1095L66.0219 86.0666L66.5146 84.2503L67.2043 86.0666ZM98.0474 114.522H87.7007V70.8299H97.9489L98.0474 114.522Z" fill="white"/>
</g>
<defs>
<clipPath id="clip0_19_23">
<rect width="135" height="135" fill="white"/>
</clipPath>
</defs>
</svg>
